<svg width="512" height="512" viewBox="0 0 512 512" fill="none" xmlns="http://www.w3.org/2000/svg">
  <defs>
    <linearGradient id="aidea-gradient" x1="91" y1="438" x2="405" y2="84" gradientUnits="userSpaceOnUse">
      <stop offset="0" stop-color="#6b37ff"/>
      <stop offset="0.46" stop-color="#1662f2"/>
      <stop offset="1" stop-color="#12c7e8"/>
    </linearGradient>
    <linearGradient id="aidea-orbit" x1="63" y1="404" x2="222" y2="105" gradientUnits="userSpaceOnUse">
      <stop offset="0" stop-color="#8847ff"/>
      <stop offset="0.55" stop-color="#1662f2"/>
      <stop offset="1" stop-color="#16c2e4"/>
    </linearGradient>
    <filter id="soft-shadow" x="36" y="52" width="420" height="430" color-interpolation-filters="sRGB">
      <feDropShadow dx="0" dy="14" stdDeviation="18" flood-color="#1768ff" flood-opacity="0.16"/>
    </filter>
    <mask id="bulb-cutout">
      <rect width="512" height="512" fill="white"/>
      <path d="M256 218c-43 0-78 35-78 78 0 27 14 51 35 65v32h86v-32c21-14 35-38 35-65 0-43-35-78-78-78Z" fill="black"/>
      <rect x="218" y="386" width="76" height="34" rx="14" fill="black"/>
    </mask>
  </defs>
  <path d="M143 214c-36 25-60 63-66 106-5 34 2 67 18 95" stroke="url(#aidea-orbit)" stroke-width="14" stroke-linecap="round"/>
  <path d="M181 168c-46 20-82 57-98 104-12 34-13 72-2 108" stroke="url(#aidea-orbit)" stroke-width="10" stroke-linecap="round" opacity="0.86"/>
  <circle cx="105" cy="171" r="17" fill="url(#aidea-orbit)"/>
  <circle cx="78" cy="426" r="16" fill="url(#aidea-orbit)"/>
  <path d="M149 94l10 31 31 10-31 10-10 31-10-31-31-10 31-10 10-31Z" fill="url(#aidea-orbit)"/>
  <path d="M231 85l6 20 20 6-20 7-6 20-7-20-20-7 20-6 7-20Z" fill="url(#aidea-orbit)"/>
  <path filter="url(#soft-shadow)" mask="url(#bulb-cutout)" d="M93 424 205 127c16-43 79-45 97-3l123 298c8 20-6 42-28 42h-56c-13 0-24-8-28-20l-25-73h-70l-25 73c-4 12-16 20-28 20h-44c-22 0-36-22-28-40Z" fill="url(#aidea-gradient)"/>
  <path d="M256 282l9 28 28 9-28 9-9 28-9-28-28-9 28-9 9-28Z" fill="url(#aidea-gradient)"/>
  <path d="M220 419h72M225 441h62M235 461h42" stroke="url(#aidea-gradient)" stroke-width="13" stroke-linecap="round"/>
</svg>
